<svg xmlns="http://www.w3.org/2000/svg" xmlns:xlink="http://www.w3.org/1999/xlink" width="500" zoomAndPan="magnify" viewBox="0 0 375 374.999991" height="500" preserveAspectRatio="xMidYMid meet" version="1.0"><defs><g/><clipPath id="f8bd31400c"><path d="M 0 25.3125 L 375 25.3125 L 375 257 L 0 257 Z M 0 25.3125 " clip-rule="nonzero"/></clipPath></defs><g clip-path="url(#f8bd31400c)"><path fill="#b6fff2" d="M -0.00390625 222.238281 L -0.00390625 253.691406 C -0.00390625 255.265625 1.355469 256.507812 2.925781 256.363281 L 92.203125 248.199219 C 93.09375 248.117188 93.886719 247.589844 94.3125 246.800781 C 96.933594 241.984375 99.730469 237.257812 102.691406 232.640625 C 103.785156 230.941406 102.695312 228.691406 100.6875 228.503906 L 2.925781 219.5625 C 1.355469 219.421875 -0.00390625 220.660156 -0.00390625 222.238281 Z M 128.765625 194.347656 L 63.136719 159.613281 C 61.742188 158.875 60.015625 159.496094 59.40625 160.949219 L 50.097656 183.238281 C 49.492188 184.695312 50.265625 186.359375 51.769531 186.835938 L 118.882812 207.914062 C 119.910156 208.234375 121.023438 207.914062 121.726562 207.097656 C 124.226562 204.191406 126.800781 201.347656 129.453125 198.570312 C 130.679688 197.28125 130.335938 195.179688 128.765625 194.347656 Z M 373.875 98.824219 L 351.632812 76.582031 C 350.519531 75.46875 348.683594 75.550781 347.675781 76.765625 L 307.988281 124.441406 C 306.59375 126.117188 307.675781 128.671875 309.851562 128.832031 C 318.84375 129.480469 327.785156 130.664062 336.617188 132.367188 C 337.40625 132.519531 338.222656 132.3125 338.84375 131.796875 L 373.695312 102.785156 C 374.90625 101.773438 374.992188 99.941406 373.875 98.824219 Z M 289.507812 84.871094 L 267.21875 75.566406 C 265.761719 74.957031 264.097656 75.730469 263.625 77.242188 L 247.398438 128.898438 C 246.789062 130.84375 248.480469 132.71875 250.480469 132.335938 C 256.199219 131.234375 261.96875 130.351562 267.769531 129.691406 C 268.65625 129.59375 269.429688 129.070312 269.84375 128.285156 L 290.84375 88.605469 C 291.582031 87.210938 290.964844 85.480469 289.507812 84.871094 Z M 155.957031 171.238281 L 77.316406 76.765625 C 76.308594 75.550781 74.472656 75.46875 73.355469 76.582031 L 51.117188 98.824219 C 50 99.941406 50.082031 101.773438 51.296875 102.785156 L 144.996094 180.777344 C 145.996094 181.613281 147.445312 181.601562 148.445312 180.765625 C 150.773438 178.820312 153.136719 176.921875 155.535156 175.074219 C 156.742188 174.148438 156.929688 172.40625 155.957031 171.238281 Z M 185.707031 153.03125 L 162.285156 76.949219 C 161.820312 75.441406 160.160156 74.65625 158.699219 75.257812 L 136.359375 84.4375 C 134.898438 85.035156 134.269531 86.761719 135 88.160156 L 172.429688 159.871094 C 173.148438 161.242188 174.871094 161.726562 176.195312 160.921875 C 178.910156 159.28125 181.660156 157.695312 184.441406 156.167969 C 185.554688 155.558594 186.078125 154.242188 185.707031 153.03125 Z M 208.269531 144.839844 C 211.828125 143.398438 215.414062 142.050781 219.027344 140.796875 C 220.023438 140.449219 220.726562 139.554688 220.820312 138.503906 L 230.894531 28.394531 C 231.039062 26.820312 229.800781 25.464844 228.222656 25.464844 L 196.769531 25.464844 C 195.191406 25.464844 193.953125 26.820312 194.097656 28.394531 L 204.542969 142.617188 C 204.707031 144.414062 206.566406 145.535156 208.238281 144.855469 L 208.269531 144.839844 " fill-opacity="1" fill-rule="nonzero"/></g><path fill="#0ef9cf" d="M 356.566406 158.621094 L 356.566406 158.617188 C 290.027344 122.410156 205.003906 132.449219 148.71875 188.734375 C 105.0625 232.394531 89.226562 293.335938 101.214844 349.535156 C 108.035156 317.546875 123.867188 287.097656 148.71875 262.246094 C 188.777344 222.1875 243.386719 205.554688 295.535156 212.34375 C 327.902344 216.558594 356.566406 191.257812 356.566406 158.621094 " fill-opacity="1" fill-rule="nonzero"/><g fill="#0ef9cf" fill-opacity="1"><g transform="translate(158.20312, 327.749978)"><g><path d="M 22.546875 0 L 4.046875 0 L 4.046875 -32.125 L 22.546875 -32.125 L 22.546875 -26.546875 L 10.859375 -26.546875 L 10.859375 -19.484375 L 21.734375 -19.484375 L 21.734375 -13.90625 L 10.859375 -13.90625 L 10.859375 -5.625 L 22.546875 -5.625 Z M 22.546875 0 "/></g></g><g transform="translate(183.405755, 327.749978)"><g><path d="M 13.484375 0.4375 C 11.054688 0.4375 8.984375 -0.00390625 7.265625 -0.890625 C 5.554688 -1.773438 4.253906 -3.144531 3.359375 -5 C 2.460938 -6.863281 2.015625 -9.25 2.015625 -12.15625 C 2.015625 -15.15625 2.523438 -17.601562 3.546875 -19.5 C 4.566406 -21.394531 5.976562 -22.789062 7.78125 -23.6875 C 9.59375 -24.582031 11.691406 -25.03125 14.078125 -25.03125 C 15.785156 -25.03125 17.253906 -24.863281 18.484375 -24.53125 C 19.722656 -24.195312 20.804688 -23.804688 21.734375 -23.359375 L 19.75 -18.171875 C 18.695312 -18.597656 17.71875 -18.945312 16.8125 -19.21875 C 15.90625 -19.488281 14.992188 -19.625 14.078125 -19.625 C 12.910156 -19.625 11.9375 -19.347656 11.15625 -18.796875 C 10.382812 -18.242188 9.804688 -17.414062 9.421875 -16.3125 C 9.046875 -15.21875 8.859375 -13.84375 8.859375 -12.1875 C 8.859375 -10.5625 9.0625 -9.210938 9.46875 -8.140625 C 9.875 -7.078125 10.46875 -6.285156 11.25 -5.765625 C 12.03125 -5.242188 12.972656 -4.984375 14.078125 -4.984375 C 15.472656 -4.984375 16.710938 -5.171875 17.796875 -5.546875 C 18.878906 -5.921875 19.9375 -6.445312 20.96875 -7.125 L 20.96875 -1.390625 C 19.9375 -0.742188 18.859375 -0.28125 17.734375 0 C 16.617188 0.289062 15.203125 0.4375 13.484375 0.4375 Z M 13.484375 0.4375 "/></g></g><g transform="translate(206.54296, 327.749978)"><g><path d="M 25.84375 -12.328125 C 25.84375 -10.273438 25.566406 -8.457031 25.015625 -6.875 C 24.460938 -5.289062 23.660156 -3.953125 22.609375 -2.859375 C 21.566406 -1.773438 20.3125 -0.953125 18.84375 -0.390625 C 17.375 0.160156 15.710938 0.4375 13.859375 0.4375 C 12.128906 0.4375 10.539062 0.160156 9.09375 -0.390625 C 7.65625 -0.953125 6.40625 -1.773438 5.34375 -2.859375 C 4.28125 -3.953125 3.457031 -5.289062 2.875 -6.875 C 2.300781 -8.457031 2.015625 -10.273438 2.015625 -12.328125 C 2.015625 -15.046875 2.5 -17.347656 3.46875 -19.234375 C 4.4375 -21.128906 5.8125 -22.566406 7.59375 -23.546875 C 9.382812 -24.535156 11.519531 -25.03125 14 -25.03125 C 16.300781 -25.03125 18.335938 -24.535156 20.109375 -23.546875 C 21.890625 -22.566406 23.289062 -21.128906 24.3125 -19.234375 C 25.332031 -17.347656 25.84375 -15.046875 25.84375 -12.328125 Z M 8.859375 -12.328125 C 8.859375 -10.710938 9.03125 -9.351562 9.375 -8.25 C 9.726562 -7.15625 10.28125 -6.328125 11.03125 -5.765625 C 11.78125 -5.210938 12.753906 -4.9375 13.953125 -4.9375 C 15.140625 -4.9375 16.101562 -5.210938 16.84375 -5.765625 C 17.582031 -6.328125 18.125 -7.15625 18.46875 -8.25 C 18.8125 -9.351562 18.984375 -10.710938 18.984375 -12.328125 C 18.984375 -13.953125 18.8125 -15.300781 18.46875 -16.375 C 18.125 -17.457031 17.578125 -18.269531 16.828125 -18.8125 C 16.078125 -19.351562 15.101562 -19.625 13.90625 -19.625 C 12.132812 -19.625 10.847656 -19.015625 10.046875 -17.796875 C 9.253906 -16.578125 8.859375 -14.753906 8.859375 -12.328125 Z M 8.859375 -12.328125 "/></g></g><g transform="translate(234.404287, 327.749978)"><g><path d="M 23 -8.921875 C 23 -7.015625 22.535156 -5.359375 21.609375 -3.953125 C 20.691406 -2.546875 19.347656 -1.460938 17.578125 -0.703125 C 15.816406 0.0546875 13.675781 0.4375 11.15625 0.4375 C 10.050781 0.4375 8.96875 0.363281 7.90625 0.21875 C 6.84375 0.0703125 5.820312 -0.140625 4.84375 -0.421875 C 3.875 -0.710938 2.945312 -1.070312 2.0625 -1.5 L 2.0625 -7.828125 C 3.582031 -7.148438 5.160156 -6.539062 6.796875 -6 C 8.441406 -5.457031 10.070312 -5.1875 11.6875 -5.1875 C 12.800781 -5.1875 13.695312 -5.332031 14.375 -5.625 C 15.0625 -5.914062 15.554688 -6.316406 15.859375 -6.828125 C 16.171875 -7.347656 16.328125 -7.9375 16.328125 -8.59375 C 16.328125 -9.394531 16.054688 -10.082031 15.515625 -10.65625 C 14.972656 -11.226562 14.226562 -11.765625 13.28125 -12.265625 C 12.332031 -12.765625 11.265625 -13.296875 10.078125 -13.859375 C 9.335938 -14.210938 8.523438 -14.640625 7.640625 -15.140625 C 6.765625 -15.648438 5.929688 -16.269531 5.140625 -17 C 4.347656 -17.738281 3.695312 -18.628906 3.1875 -19.671875 C 2.6875 -20.722656 2.4375 -21.976562 2.4375 -23.4375 C 2.4375 -25.363281 2.875 -27.003906 3.75 -28.359375 C 4.632812 -29.722656 5.890625 -30.765625 7.515625 -31.484375 C 9.148438 -32.210938 11.082031 -32.578125 13.3125 -32.578125 C 14.988281 -32.578125 16.582031 -32.382812 18.09375 -32 C 19.613281 -31.613281 21.203125 -31.054688 22.859375 -30.328125 L 20.65625 -25.03125 C 19.175781 -25.625 17.847656 -26.085938 16.671875 -26.421875 C 15.503906 -26.753906 14.3125 -26.921875 13.09375 -26.921875 C 12.25 -26.921875 11.523438 -26.785156 10.921875 -26.515625 C 10.316406 -26.242188 9.859375 -25.859375 9.546875 -25.359375 C 9.242188 -24.867188 9.09375 -24.304688 9.09375 -23.671875 C 9.09375 -22.898438 9.316406 -22.253906 9.765625 -21.734375 C 10.210938 -21.222656 10.882812 -20.722656 11.78125 -20.234375 C 12.6875 -19.753906 13.8125 -19.191406 15.15625 -18.546875 C 16.800781 -17.765625 18.203125 -16.953125 19.359375 -16.109375 C 20.523438 -15.273438 21.421875 -14.289062 22.046875 -13.15625 C 22.679688 -12.019531 23 -10.609375 23 -8.921875 Z M 23 -8.921875 "/></g></g><g transform="translate(259.189441, 327.749978)"><g><path d="M 0 -24.5625 L 7.34375 -24.5625 L 11.96875 -10.75 C 12.113281 -10.300781 12.238281 -9.847656 12.34375 -9.390625 C 12.445312 -8.941406 12.535156 -8.472656 12.609375 -7.984375 C 12.679688 -7.503906 12.738281 -7.003906 12.78125 -6.484375 L 12.921875 -6.484375 C 13.003906 -7.273438 13.125 -8.015625 13.28125 -8.703125 C 13.4375 -9.390625 13.628906 -10.070312 13.859375 -10.75 L 18.40625 -24.5625 L 25.59375 -24.5625 L 15.203125 3.140625 C 14.578125 4.835938 13.757812 6.253906 12.75 7.390625 C 11.738281 8.523438 10.578125 9.378906 9.265625 9.953125 C 7.953125 10.523438 6.507812 10.8125 4.9375 10.8125 C 4.175781 10.8125 3.515625 10.769531 2.953125 10.6875 C 2.398438 10.601562 1.925781 10.519531 1.53125 10.4375 L 1.53125 5.125 C 1.84375 5.195312 2.234375 5.257812 2.703125 5.3125 C 3.171875 5.375 3.660156 5.40625 4.171875 5.40625 C 5.109375 5.40625 5.914062 5.207031 6.59375 4.8125 C 7.269531 4.414062 7.832031 3.882812 8.28125 3.21875 C 8.738281 2.550781 9.097656 1.820312 9.359375 1.03125 L 9.75 -0.171875 Z M 0 -24.5625 "/></g></g><g transform="translate(284.787584, 327.749978)"><g><path d="M 17.46875 -25.03125 C 20.09375 -25.03125 22.203125 -24.316406 23.796875 -22.890625 C 25.390625 -21.460938 26.1875 -19.171875 26.1875 -16.015625 L 26.1875 0 L 19.484375 0 L 19.484375 -14.34375 C 19.484375 -16.101562 19.164062 -17.429688 18.53125 -18.328125 C 17.894531 -19.222656 16.894531 -19.671875 15.53125 -19.671875 C 13.476562 -19.671875 12.078125 -18.972656 11.328125 -17.578125 C 10.585938 -16.179688 10.21875 -14.175781 10.21875 -11.5625 L 10.21875 0 L 3.515625 0 L 3.515625 -24.5625 L 8.640625 -24.5625 L 9.53125 -21.421875 L 9.90625 -21.421875 C 10.4375 -22.273438 11.09375 -22.960938 11.875 -23.484375 C 12.65625 -24.015625 13.523438 -24.40625 14.484375 -24.65625 C 15.453125 -24.90625 16.445312 -25.03125 17.46875 -25.03125 Z M 17.46875 -25.03125 "/></g></g><g transform="translate(314.362778, 327.749978)"><g><path d="M 13.484375 0.4375 C 11.054688 0.4375 8.984375 -0.00390625 7.265625 -0.890625 C 5.554688 -1.773438 4.253906 -3.144531 3.359375 -5 C 2.460938 -6.863281 2.015625 -9.25 2.015625 -12.15625 C 2.015625 -15.15625 2.523438 -17.601562 3.546875 -19.5 C 4.566406 -21.394531 5.976562 -22.789062 7.78125 -23.6875 C 9.59375 -24.582031 11.691406 -25.03125 14.078125 -25.03125 C 15.785156 -25.03125 17.253906 -24.863281 18.484375 -24.53125 C 19.722656 -24.195312 20.804688 -23.804688 21.734375 -23.359375 L 19.75 -18.171875 C 18.695312 -18.597656 17.71875 -18.945312 16.8125 -19.21875 C 15.90625 -19.488281 14.992188 -19.625 14.078125 -19.625 C 12.910156 -19.625 11.9375 -19.347656 11.15625 -18.796875 C 10.382812 -18.242188 9.804688 -17.414062 9.421875 -16.3125 C 9.046875 -15.21875 8.859375 -13.84375 8.859375 -12.1875 C 8.859375 -10.5625 9.0625 -9.210938 9.46875 -8.140625 C 9.875 -7.078125 10.46875 -6.285156 11.25 -5.765625 C 12.03125 -5.242188 12.972656 -4.984375 14.078125 -4.984375 C 15.472656 -4.984375 16.710938 -5.171875 17.796875 -5.546875 C 18.878906 -5.921875 19.9375 -6.445312 20.96875 -7.125 L 20.96875 -1.390625 C 19.9375 -0.742188 18.859375 -0.28125 17.734375 0 C 16.617188 0.289062 15.203125 0.4375 13.484375 0.4375 Z M 13.484375 0.4375 "/></g></g></g></svg>