<svg xmlns="http://www.w3.org/2000/svg" xmlns:xlink="http://www.w3.org/1999/xlink" width="500" zoomAndPan="magnify" viewBox="0 0 375 374.999991" height="500" preserveAspectRatio="xMidYMid meet" version="1.0"><defs><clipPath id="5782ec5c82"><path d="M 65.453125 0 L 222 0 L 222 270 L 65.453125 270 Z M 65.453125 0 " clip-rule="nonzero"/></clipPath></defs><path fill="#52ba90" d="M 173.308594 196.015625 L 144.925781 241.425781 L 142.085938 241.425781 C 122.21875 235.75 105.191406 224.398438 99.511719 204.53125 C 88.160156 170.46875 116.542969 144.925781 142.085938 130.734375 C 190.335938 105.191406 221.558594 59.777344 232.910156 5.851562 C 255.617188 28.558594 261.292969 62.617188 247.101562 91 C 150.601562 156.277344 105.191406 190.339844 105.191406 190.339844 C 150.601562 193.175781 173.308594 196.015625 173.308594 196.015625 Z M 173.308594 196.015625 " fill-opacity="1" fill-rule="evenodd"/><path fill="#00ff98" d="M 201.691406 178.984375 L 230.074219 130.734375 L 232.910156 133.574219 C 252.777344 136.410156 269.808594 150.601562 275.484375 170.46875 C 286.839844 204.53125 258.457031 230.074219 230.074219 244.265625 C 184.660156 269.808594 150.601562 315.222656 142.085938 366.308594 C 119.382812 346.441406 113.703125 312.382812 127.894531 284 C 221.558594 218.722656 269.808594 184.660156 269.808594 184.660156 C 224.398438 178.984375 201.691406 178.984375 201.691406 178.984375 Z M 201.691406 178.984375 " fill-opacity="1" fill-rule="evenodd"/><g clip-path="url(#5782ec5c82)"><path fill="#ffffff" d="M 139.25 122.21875 C 184.660156 96.675781 215.882812 51.265625 221.558594 0.175781 C 184.660156 127.898438 54.101562 93.835938 65.453125 198.851562 C 71.132812 232.910156 93.835938 261.292969 127.894531 269.808594 L 139.25 249.941406 C 82.484375 238.589844 56.941406 164.792969 139.25 122.21875 Z M 139.25 122.21875 " fill-opacity="1" fill-rule="evenodd"/></g><path fill="#ffffff" d="M 235.75 252.78125 C 190.335938 275.484375 159.117188 320.898438 150.601562 374.824219 C 190.335938 247.101562 320.898438 278.324219 306.707031 176.148438 C 303.867188 142.089844 278.324219 113.707031 247.101562 105.191406 L 235.75 122.21875 C 289.675781 136.410156 318.058594 210.207031 235.75 252.78125 Z M 235.75 252.78125 " fill-opacity="1" fill-rule="evenodd"/></svg>